<svg width="520" height="520" viewBox="0 0 520 520" fill="none" xmlns="http://www.w3.org/2000/svg">
<path d="M499.281 270.616C499.353 334.961 476.284 396.83 434.924 443.217C432.43 446.032 429.869 448.779 427.241 451.458C423.237 455.564 419.099 459.511 414.826 463.299C374.852 498.805 324.95 518.757 273.169 519.937C271.444 519.979 269.712 520 267.973 520C226.677 520 174.736 496.219 127.599 463.299C123.699 460.576 119.834 457.789 116.004 454.939C114.213 453.62 112.432 452.281 110.659 450.924C92.4788 437.085 75.2225 421.886 59.017 405.44C48.4066 394.705 38.4569 383.234 29.2311 371.103C-6.98713 322.937 -14.9756 279.538 36.6597 270.616C42.7731 269.563 48.7064 268.438 54.4596 267.24C62.7931 265.513 70.7686 263.649 78.3859 261.646C88.6465 258.958 98.2865 256.042 107.306 252.9C110.34 251.847 113.304 250.773 116.199 249.678C159 233.471 187.646 212.336 207.145 189.405C210.453 185.523 213.502 181.595 216.293 177.619C220.563 171.569 224.441 165.208 227.901 158.584C232.676 149.379 236.687 139.737 239.887 129.77L240.063 129.222C255.577 80.9727 250.857 36.2185 267.973 21.2397C341.139 -42.7961 432.228 48.3968 474.983 155.937C477.138 161.356 479.165 166.808 481.064 172.292C481.917 174.742 482.74 177.196 483.532 179.655C485.615 186.063 487.505 192.488 489.202 198.93C489.853 201.386 490.474 203.841 491.064 206.293C491.696 208.939 492.301 211.578 492.861 214.217C497.022 233.541 499.281 252.598 499.281 270.616Z" fill="url(#paint0_linear_2:116)"/>
<path d="M273.169 519.937C271.444 519.979 269.712 520 267.973 520C226.677 520 174.736 496.219 127.599 463.299C123.699 460.576 119.834 457.789 116.004 454.939L119.363 432.899L221.065 418.341L272.108 460.421L273.169 519.937Z" fill="#333333"/>
<path d="M278.065 179.655H263.572C263.123 179.655 262.693 179.848 262.376 180.19C262.058 180.532 261.88 180.996 261.88 181.48V197.105C261.879 197.345 261.923 197.582 262.008 197.804C262.092 198.025 262.217 198.227 262.374 198.396C262.532 198.566 262.718 198.7 262.924 198.792C263.13 198.883 263.35 198.93 263.572 198.93H278.065C278.514 198.929 278.944 198.737 279.262 198.395C279.579 198.053 279.757 197.589 279.758 197.105V181.48C279.756 180.996 279.578 180.533 279.26 180.191C278.943 179.849 278.513 179.656 278.065 179.655V179.655Z" fill="#E6E6E6"/>
<path d="M279.732 207.795C279.659 207.375 279.453 206.995 279.149 206.72C278.845 206.446 278.461 206.295 278.065 206.293H263.572C263.123 206.293 262.693 206.485 262.376 206.828C262.058 207.17 261.88 207.634 261.88 208.118V223.742C261.879 223.982 261.923 224.22 262.008 224.441C262.092 224.663 262.217 224.864 262.374 225.034C262.532 225.203 262.718 225.338 262.924 225.429C263.13 225.521 263.35 225.568 263.572 225.567H278.065C278.514 225.567 278.944 225.375 279.262 225.033C279.579 224.69 279.757 224.226 279.758 223.742V208.118C279.759 208.009 279.75 207.901 279.732 207.795V207.795Z" fill="#E6E6E6"/>
<path d="M278.722 233.071C278.514 232.978 278.29 232.93 278.065 232.93H263.572C263.35 232.93 263.13 232.977 262.924 233.068C262.718 233.16 262.532 233.294 262.374 233.464C262.217 233.634 262.093 233.835 262.008 234.057C261.923 234.278 261.879 234.516 261.88 234.755V250.38C261.879 250.62 261.922 250.858 262.006 251.08C262.091 251.302 262.216 251.503 262.373 251.673C262.531 251.843 262.718 251.977 262.923 252.068C263.129 252.16 263.35 252.206 263.572 252.205H278.065C278.514 252.205 278.944 252.013 279.262 251.67C279.579 251.328 279.757 250.864 279.758 250.38V234.755C279.757 234.396 279.658 234.045 279.474 233.746C279.29 233.446 279.029 233.212 278.722 233.071Z" fill="#E6E6E6"/>
<path d="M308.508 232.93H294.016C293.793 232.93 293.573 232.977 293.367 233.068C293.162 233.16 292.975 233.294 292.818 233.464C292.661 233.634 292.536 233.835 292.451 234.057C292.366 234.278 292.323 234.516 292.323 234.755V250.38C292.323 250.62 292.366 250.857 292.451 251.079C292.536 251.301 292.661 251.502 292.818 251.672C292.975 251.841 293.162 251.976 293.367 252.067C293.573 252.159 293.793 252.206 294.016 252.205H308.508C308.957 252.205 309.388 252.013 309.705 251.67C310.022 251.328 310.201 250.864 310.201 250.38V234.755C310.201 234.272 310.022 233.807 309.705 233.465C309.388 233.123 308.957 232.931 308.508 232.93V232.93Z" fill="#E6E6E6"/>
<path d="M365.803 157.264H351.303C350.856 157.266 350.427 157.459 350.111 157.801C349.794 158.143 349.617 158.606 349.617 159.089V174.721C349.617 175.203 349.795 175.665 350.111 176.006C350.427 176.347 350.856 176.538 351.303 176.539H365.803C366.25 176.539 366.68 176.348 366.997 176.007C367.315 175.666 367.494 175.203 367.495 174.721V159.089C367.494 158.605 367.315 158.142 366.998 157.8C366.681 157.458 366.251 157.265 365.803 157.264Z" fill="white"/>
<path d="M365.803 183.902H351.303C350.856 183.903 350.427 184.096 350.111 184.438C349.794 184.781 349.617 185.244 349.617 185.727V201.358C349.617 201.84 349.795 202.303 350.111 202.644C350.427 202.985 350.856 203.176 351.303 203.176H365.803C366.25 203.176 366.68 202.985 366.997 202.644C367.315 202.304 367.494 201.841 367.495 201.358V185.727C367.494 185.243 367.315 184.78 366.998 184.438C366.681 184.096 366.251 183.903 365.803 183.902V183.902Z" fill="white"/>
<path d="M365.803 210.539H351.303C350.856 210.541 350.427 210.734 350.111 211.076C349.794 211.418 349.617 211.882 349.617 212.364V227.989C349.617 228.228 349.66 228.465 349.744 228.687C349.829 228.908 349.953 229.109 350.109 229.278C350.266 229.448 350.452 229.583 350.657 229.674C350.862 229.766 351.082 229.814 351.303 229.814H365.803C366.251 229.814 366.682 229.621 366.999 229.279C367.317 228.937 367.495 228.473 367.495 227.989V212.364C367.494 211.881 367.315 211.417 366.998 211.075C366.681 210.734 366.251 210.541 365.803 210.539V210.539Z" fill="white"/>
<path d="M365.803 237.177H351.303C350.856 237.179 350.427 237.372 350.111 237.714C349.794 238.056 349.617 238.519 349.617 239.002V254.627C349.617 254.866 349.66 255.103 349.744 255.324C349.829 255.546 349.953 255.747 350.109 255.916C350.266 256.086 350.452 256.22 350.657 256.312C350.862 256.404 351.082 256.451 351.303 256.452H365.803C366.251 256.451 366.682 256.259 366.999 255.917C367.317 255.575 367.495 255.111 367.495 254.627V239.002C367.494 238.518 367.315 238.055 366.998 237.713C366.681 237.371 366.251 237.178 365.803 237.177V237.177Z" fill="white"/>
<path d="M365.803 263.815H351.303C351.082 263.815 350.862 263.862 350.657 263.954C350.452 264.046 350.266 264.181 350.109 264.35C349.953 264.52 349.829 264.721 349.744 264.942C349.66 265.163 349.617 265.401 349.617 265.64V281.264C349.617 281.504 349.66 281.741 349.744 281.962C349.829 282.183 349.953 282.384 350.109 282.554C350.266 282.723 350.452 282.858 350.657 282.95C350.862 283.042 351.082 283.089 351.303 283.089H365.803C366.251 283.089 366.682 282.897 366.999 282.555C367.317 282.212 367.495 281.748 367.495 281.264V265.64C367.495 265.156 367.317 264.692 366.999 264.35C366.682 264.007 366.251 263.815 365.803 263.815V263.815Z" fill="#E6E6E6"/>
<path d="M396.246 157.264H381.747C381.299 157.266 380.87 157.459 380.554 157.801C380.238 158.143 380.06 158.606 380.061 159.089V174.721C380.061 175.203 380.238 175.665 380.555 176.006C380.871 176.347 381.3 176.538 381.747 176.539H396.246C396.694 176.539 397.123 176.347 397.441 176.007C397.758 175.666 397.937 175.203 397.939 174.721V159.089C397.937 158.605 397.759 158.142 397.441 157.8C397.124 157.458 396.694 157.265 396.246 157.264V157.264Z" fill="white"/>
<path d="M396.246 183.902H381.747C381.299 183.903 380.87 184.096 380.554 184.438C380.238 184.781 380.06 185.244 380.061 185.727V201.358C380.061 201.84 380.238 202.303 380.555 202.644C380.871 202.985 381.3 203.176 381.747 203.176H396.246C396.694 203.176 397.123 202.985 397.441 202.644C397.758 202.304 397.937 201.841 397.939 201.358V185.727C397.937 185.243 397.759 184.78 397.441 184.438C397.124 184.096 396.694 183.903 396.246 183.902V183.902Z" fill="white"/>
<path d="M396.246 210.539H381.747C381.299 210.541 380.87 210.734 380.554 211.076C380.238 211.418 380.06 211.882 380.061 212.364V227.989C380.06 228.228 380.103 228.465 380.188 228.687C380.272 228.908 380.396 229.109 380.553 229.278C380.709 229.448 380.895 229.583 381.1 229.674C381.305 229.766 381.525 229.814 381.747 229.814H396.246C396.695 229.814 397.125 229.621 397.443 229.279C397.76 228.937 397.938 228.473 397.939 227.989V212.364C397.937 211.881 397.759 211.417 397.441 211.075C397.124 210.734 396.694 210.541 396.246 210.539V210.539Z" fill="white"/>
<path d="M396.246 237.177H381.747C381.299 237.179 380.87 237.372 380.554 237.714C380.238 238.056 380.06 238.519 380.061 239.002V254.627C380.06 254.866 380.103 255.103 380.188 255.324C380.272 255.546 380.396 255.747 380.553 255.916C380.709 256.086 380.895 256.22 381.1 256.312C381.305 256.404 381.525 256.451 381.747 256.452H396.246C396.695 256.451 397.125 256.259 397.443 255.917C397.76 255.575 397.938 255.111 397.939 254.627V239.002C397.937 238.518 397.759 238.055 397.441 237.713C397.124 237.371 396.694 237.178 396.246 237.177V237.177Z" fill="#E6E6E6"/>
<path d="M396.246 263.815H381.747C381.525 263.815 381.305 263.862 381.1 263.954C380.895 264.046 380.709 264.181 380.553 264.35C380.396 264.52 380.272 264.721 380.188 264.942C380.103 265.163 380.06 265.401 380.061 265.64V281.264C380.06 281.504 380.103 281.741 380.188 281.962C380.272 282.183 380.396 282.384 380.553 282.554C380.709 282.723 380.895 282.858 381.1 282.95C381.305 283.042 381.525 283.089 381.747 283.089H396.246C396.695 283.089 397.125 282.897 397.443 282.555C397.76 282.212 397.938 281.748 397.939 281.264V265.64C397.938 265.156 397.76 264.692 397.443 264.35C397.125 264.007 396.695 263.815 396.246 263.815Z" fill="white"/>
<path d="M426.689 157.264H412.19C411.742 157.266 411.313 157.459 410.997 157.801C410.681 158.143 410.504 158.606 410.504 159.089V174.721C410.504 175.203 410.682 175.665 410.998 176.006C411.314 176.347 411.743 176.538 412.19 176.539H426.689C427.137 176.539 427.567 176.347 427.884 176.007C428.201 175.666 428.38 175.203 428.382 174.721V159.089C428.381 158.605 428.202 158.142 427.885 157.8C427.568 157.458 427.138 157.265 426.689 157.264V157.264Z" fill="white"/>
<path d="M426.689 183.902H412.19C411.742 183.903 411.313 184.096 410.997 184.438C410.681 184.781 410.504 185.244 410.504 185.727V201.358C410.504 201.84 410.682 202.303 410.998 202.644C411.314 202.985 411.743 203.176 412.19 203.176H426.689C427.137 203.176 427.567 202.985 427.884 202.644C428.201 202.304 428.38 201.841 428.382 201.358V185.727C428.381 185.243 428.202 184.78 427.885 184.438C427.568 184.096 427.138 183.903 426.689 183.902Z" fill="white"/>
<path d="M426.689 210.539H412.19C411.742 210.541 411.313 210.734 410.997 211.076C410.681 211.418 410.504 211.882 410.504 212.364V227.989C410.503 228.228 410.547 228.465 410.631 228.687C410.715 228.908 410.839 229.109 410.996 229.278C411.153 229.448 411.339 229.583 411.544 229.674C411.749 229.766 411.968 229.814 412.19 229.814H426.689C427.138 229.814 427.569 229.621 427.886 229.279C428.203 228.937 428.382 228.473 428.382 227.989V212.364C428.381 211.881 428.202 211.417 427.885 211.075C427.568 210.734 427.138 210.541 426.689 210.539V210.539Z" fill="#E6E6E6"/>
<path d="M426.689 237.177H412.19C411.742 237.179 411.313 237.372 410.997 237.714C410.681 238.056 410.504 238.519 410.504 239.002V254.627C410.503 254.866 410.547 255.103 410.631 255.324C410.715 255.546 410.839 255.747 410.996 255.916C411.153 256.086 411.339 256.22 411.544 256.312C411.749 256.404 411.968 256.451 412.19 256.452H426.689C427.138 256.451 427.569 256.259 427.886 255.917C428.203 255.575 428.382 255.111 428.382 254.627V239.002C428.381 238.518 428.202 238.055 427.885 237.713C427.568 237.371 427.138 237.178 426.689 237.177V237.177Z" fill="white"/>
<path d="M426.689 263.815H412.19C411.968 263.815 411.749 263.862 411.544 263.954C411.339 264.046 411.153 264.181 410.996 264.35C410.839 264.52 410.715 264.721 410.631 264.942C410.547 265.163 410.503 265.401 410.504 265.64V281.264C410.503 281.504 410.547 281.741 410.631 281.962C410.715 282.183 410.839 282.384 410.996 282.554C411.153 282.723 411.339 282.858 411.544 282.95C411.749 283.042 411.968 283.089 412.19 283.089H426.689C427.138 283.089 427.569 282.897 427.886 282.555C428.203 282.212 428.382 281.748 428.382 281.264V265.64C428.382 265.156 428.203 264.692 427.886 264.35C427.569 264.007 427.138 263.815 426.689 263.815Z" fill="white"/>
<path d="M457.42 101.778H442.921C442.474 101.779 442.045 101.972 441.729 102.315C441.412 102.657 441.235 103.12 441.235 103.603V119.234C441.235 119.716 441.413 120.179 441.729 120.52C442.045 120.861 442.474 121.052 442.921 121.052H457.42C457.868 121.052 458.298 120.861 458.615 120.52C458.933 120.18 459.112 119.717 459.113 119.234V103.603C459.112 103.119 458.933 102.656 458.616 102.314C458.299 101.972 457.869 101.779 457.42 101.778Z" fill="white"/>
<path d="M457.42 128.415H442.921C442.474 128.417 442.045 128.61 441.728 128.952C441.412 129.294 441.235 129.758 441.235 130.24V145.872C441.235 146.354 441.413 146.817 441.729 147.158C442.045 147.498 442.474 147.69 442.921 147.69H457.42C457.868 147.69 458.298 147.499 458.615 147.158C458.933 146.817 459.112 146.355 459.113 145.872V130.24C459.112 129.757 458.933 129.293 458.616 128.952C458.299 128.61 457.869 128.417 457.42 128.415V128.415Z" fill="white"/>
<path d="M457.42 155.053H442.921C442.474 155.055 442.045 155.248 441.729 155.59C441.412 155.932 441.235 156.395 441.235 156.878V172.503C441.235 172.742 441.278 172.979 441.362 173.2C441.447 173.422 441.571 173.623 441.727 173.792C441.884 173.962 442.07 174.096 442.275 174.188C442.48 174.28 442.7 174.327 442.921 174.328H457.42C457.869 174.327 458.3 174.135 458.617 173.793C458.935 173.451 459.113 172.987 459.113 172.503V156.878C459.112 156.395 458.933 155.931 458.616 155.589C458.299 155.247 457.869 155.055 457.42 155.053Z" fill="#E6E6E6"/>
<path d="M457.42 181.691H442.921C442.474 181.693 442.045 181.886 441.729 182.228C441.412 182.57 441.235 183.033 441.235 183.516V199.14C441.235 199.38 441.278 199.617 441.362 199.838C441.447 200.059 441.571 200.26 441.727 200.43C441.884 200.599 442.07 200.734 442.275 200.826C442.48 200.918 442.7 200.965 442.921 200.965H457.42C457.869 200.965 458.3 200.773 458.617 200.431C458.935 200.088 459.113 199.624 459.113 199.14V183.516C459.112 183.032 458.933 182.569 458.616 182.227C458.299 181.885 457.869 181.692 457.42 181.691V181.691Z" fill="white"/>
<path d="M457.42 208.329H442.921C442.7 208.329 442.48 208.376 442.275 208.468C442.07 208.56 441.884 208.695 441.727 208.864C441.571 209.034 441.447 209.235 441.362 209.456C441.278 209.677 441.235 209.914 441.235 210.154V225.778C441.235 226.017 441.278 226.254 441.362 226.476C441.447 226.697 441.571 226.898 441.727 227.068C441.884 227.237 442.07 227.372 442.275 227.464C442.48 227.556 442.7 227.603 442.921 227.603H457.42C457.869 227.603 458.3 227.411 458.617 227.068C458.935 226.726 459.113 226.262 459.113 225.778V210.154C459.113 209.67 458.935 209.206 458.617 208.863C458.3 208.521 457.869 208.329 457.42 208.329V208.329Z" fill="white"/>
<path d="M487.864 101.778H473.365C472.917 101.779 472.488 101.972 472.172 102.315C471.856 102.657 471.678 103.12 471.679 103.603V119.234C471.679 119.716 471.856 120.179 472.173 120.52C472.489 120.861 472.918 121.052 473.365 121.052H487.864C488.312 121.052 488.741 120.861 489.059 120.52C489.376 120.18 489.555 119.717 489.557 119.234V103.603C489.555 103.119 489.377 102.656 489.059 102.314C488.742 101.972 488.312 101.779 487.864 101.778V101.778Z" fill="#E6E6E6"/>
<path d="M487.864 128.415H473.365C472.917 128.417 472.488 128.61 472.172 128.952C471.856 129.294 471.678 129.758 471.679 130.24V145.872C471.679 146.354 471.856 146.817 472.173 147.158C472.489 147.498 472.918 147.69 473.365 147.69H487.864C488.312 147.69 488.741 147.499 489.059 147.158C489.376 146.817 489.555 146.355 489.557 145.872V130.24C489.555 129.757 489.377 129.293 489.059 128.952C488.742 128.61 488.312 128.417 487.864 128.415V128.415Z" fill="white"/>
<path d="M487.864 155.053H473.365C472.917 155.055 472.488 155.248 472.172 155.59C471.856 155.932 471.678 156.395 471.679 156.878V172.503C471.678 172.742 471.721 172.979 471.806 173.2C471.89 173.422 472.014 173.623 472.171 173.792C472.327 173.962 472.513 174.096 472.718 174.188C472.923 174.28 473.143 174.327 473.365 174.328H487.864C488.313 174.327 488.743 174.135 489.061 173.793C489.378 173.451 489.556 172.987 489.557 172.503V156.878C489.555 156.395 489.377 155.931 489.059 155.589C488.742 155.247 488.312 155.055 487.864 155.053V155.053Z" fill="white"/>
<path d="M487.864 181.691H473.365C472.917 181.693 472.488 181.886 472.172 182.228C471.856 182.57 471.678 183.033 471.679 183.516V199.14C471.678 199.38 471.721 199.617 471.806 199.838C471.89 200.059 472.014 200.26 472.171 200.43C472.327 200.599 472.513 200.734 472.718 200.826C472.923 200.918 473.143 200.965 473.365 200.965H487.864C488.313 200.965 488.743 200.773 489.061 200.431C489.378 200.088 489.556 199.624 489.557 199.14V183.516C489.555 183.032 489.377 182.569 489.059 182.227C488.742 181.885 488.312 181.692 487.864 181.691V181.691Z" fill="white"/>
<path d="M487.864 208.329H473.365C473.143 208.329 472.923 208.376 472.718 208.468C472.513 208.56 472.327 208.695 472.171 208.864C472.014 209.034 471.89 209.235 471.806 209.456C471.721 209.677 471.678 209.914 471.679 210.154V225.778C471.678 226.017 471.721 226.254 471.806 226.476C471.89 226.697 472.014 226.898 472.171 227.068C472.327 227.237 472.513 227.372 472.718 227.464C472.923 227.556 473.143 227.603 473.365 227.603H487.864C488.313 227.603 488.743 227.411 489.061 227.068C489.378 226.726 489.556 226.262 489.557 225.778V210.154C489.556 209.67 489.378 209.206 489.061 208.863C488.743 208.521 488.313 208.329 487.864 208.329V208.329Z" fill="#E6E6E6"/>
<path d="M518.307 101.778H503.808C503.36 101.779 502.931 101.972 502.615 102.315C502.299 102.657 502.122 103.12 502.122 103.603V119.234C502.122 119.716 502.3 120.179 502.616 120.52C502.932 120.861 503.361 121.052 503.808 121.052H518.307C518.755 121.052 519.185 120.861 519.502 120.52C519.819 120.18 519.998 119.717 520 119.234V103.603C519.999 103.119 519.82 102.656 519.503 102.314C519.186 101.972 518.756 101.779 518.307 101.778V101.778Z" fill="#E6E6E6"/>
<path d="M518.307 128.415H503.808C503.36 128.417 502.931 128.61 502.615 128.952C502.299 129.294 502.122 129.758 502.122 130.24V145.872C502.122 146.354 502.3 146.817 502.616 147.158C502.932 147.498 503.361 147.69 503.808 147.69H518.307C518.755 147.69 519.185 147.499 519.502 147.158C519.819 146.817 519.998 146.355 520 145.872V130.24C519.999 129.757 519.82 129.293 519.503 128.952C519.186 128.61 518.756 128.417 518.307 128.415V128.415Z" fill="#E6E6E6"/>
<path d="M518.307 155.053H503.808C503.36 155.055 502.931 155.248 502.615 155.59C502.299 155.932 502.122 156.395 502.122 156.878V172.503C502.121 172.742 502.164 172.979 502.249 173.2C502.333 173.422 502.457 173.623 502.614 173.792C502.771 173.962 502.957 174.096 503.162 174.188C503.367 174.28 503.586 174.327 503.808 174.328H518.307C518.756 174.327 519.187 174.135 519.504 173.793C519.821 173.451 520 172.987 520 172.503V156.878C519.999 156.395 519.82 155.931 519.503 155.589C519.186 155.247 518.756 155.055 518.307 155.053V155.053Z" fill="white"/>
<path d="M518.307 181.691H503.808C503.36 181.693 502.931 181.886 502.615 182.228C502.299 182.57 502.122 183.033 502.122 183.516V199.14C502.121 199.38 502.164 199.617 502.249 199.838C502.333 200.059 502.457 200.26 502.614 200.43C502.771 200.599 502.957 200.734 503.162 200.826C503.367 200.918 503.586 200.965 503.808 200.965H518.307C518.756 200.965 519.187 200.773 519.504 200.431C519.821 200.088 520 199.624 520 199.14V183.516C519.999 183.032 519.82 182.569 519.503 182.227C519.186 181.885 518.756 181.692 518.307 181.691V181.691Z" fill="#E6E6E6"/>
<path d="M518.307 208.329H503.808C503.586 208.329 503.367 208.376 503.162 208.468C502.957 208.56 502.771 208.695 502.614 208.864C502.457 209.034 502.333 209.235 502.249 209.456C502.164 209.677 502.121 209.914 502.122 210.154V225.778C502.121 226.017 502.164 226.254 502.249 226.476C502.333 226.697 502.457 226.898 502.614 227.068C502.771 227.237 502.957 227.372 503.162 227.464C503.367 227.556 503.586 227.603 503.808 227.603H518.307C518.756 227.603 519.187 227.411 519.504 227.068C519.821 226.726 520 226.262 520 225.778V210.154C520 209.67 519.821 209.206 519.504 208.863C519.187 208.521 518.756 208.329 518.307 208.329V208.329Z" fill="#E6E6E6"/>
<path d="M218.817 463.3H218.413L218.758 463.251L218.817 463.3Z" fill="#2F2E41"/>
<path d="M184.128 172.008C208.694 172.008 228.609 150.537 228.609 124.052C228.609 97.5661 208.694 76.0953 184.128 76.0953C159.562 76.0953 139.647 97.5661 139.647 124.052C139.647 150.537 159.562 172.008 184.128 172.008Z" fill="#FFB6B6"/>
<path d="M223.082 88.8909C223.082 88.8909 234.716 64.9128 209.121 62.7329C209.121 62.7329 187.301 41.3931 165.06 58.8317C165.06 58.8317 152.929 58.8317 146.295 73.632C146.295 73.632 136.754 69.7308 134.657 80.1715C134.657 80.1715 127.675 101.97 134.657 121.588C141.638 141.207 143.957 143.387 143.957 143.387C143.957 143.387 132.485 102.255 160.41 100.076C188.334 97.8956 219.582 79.0816 221.909 103.06C224.236 127.038 227.738 132.946 227.738 132.946C227.738 132.946 249.841 98.7001 223.082 88.8909Z" fill="#333333"/>
<path d="M299.192 242.238L299.048 243.052L297.44 252.205L286.327 315.518L285.669 319.245L284.289 327.128L282.401 337.881L278.214 361.711L277.017 368.541L276.567 371.103L276.411 372.001L275.168 379.069L274.79 381.203L271.756 405.44L269.106 426.561L277.974 436.121L272.687 441.821L269.217 463.25L269.223 463.299H127.599C121.87 459.298 116.223 455.173 110.659 450.924L111.824 441.519C111.824 441.519 115.835 424.722 114.148 422.714C112.469 420.707 108.784 417.12 108.784 417.12L113.426 405.44L114.07 403.819L112.99 379.652L112.964 379.069L112.605 371.103L112.56 370.078L112.488 368.541L111.114 337.881L111.088 337.375L110.672 328.082L110.281 319.245L110.112 315.518L108.439 278.225L107.306 252.9L106.316 230.853L110.294 229.4L152.841 213.81L170.465 189.11L207.145 189.405L225.102 189.552L255.063 219.51L261.88 223.019L261.932 223.047L266.821 225.567L279.217 231.948L292.323 238.7L299.048 242.161L299.192 242.238Z" fill="#CACACA"/>
<path d="M175.205 391.354C172.517 392.476 169.633 392.95 166.757 392.741C163.881 392.533 161.083 391.646 158.559 390.145C156.034 388.644 153.846 386.565 152.148 384.053C150.45 381.542 149.284 378.66 148.731 375.61L79.3547 364.998L103.472 335.587L165.655 350.173C170.469 349.51 175.341 350.775 179.348 353.727C183.355 356.679 186.219 361.114 187.396 366.19C188.573 371.266 187.982 376.631 185.736 381.269C183.489 385.907 179.742 389.495 175.205 391.354V391.354Z" fill="#FFB6B6"/>
<path d="M144.273 337.881C142.988 336.124 141.168 334.914 139.136 334.463L110.672 328.082L107.749 327.429C106.05 327.047 104.445 326.282 103.039 325.185C101.633 324.088 100.458 322.683 99.5907 321.063C98.6909 319.362 98.1465 317.469 97.9956 315.518C97.86 313.744 98.057 311.958 98.5751 310.268L108.439 278.225L114.838 257.434C115.614 254.927 116.072 252.318 116.199 249.678C116.556 242.373 114.459 235.174 110.294 229.4C106.632 224.324 101.553 220.653 95.8071 218.929C90.0612 217.205 83.9533 217.52 78.3858 219.826C78.223 219.889 78.0538 219.959 77.891 220.029C73.8982 221.748 70.331 224.444 67.4711 227.905C64.6113 231.366 62.5372 235.497 61.4128 239.971L54.4595 267.24L40.1167 323.457C38.6809 329.089 38.3909 334.989 39.2664 340.754C40.1419 346.518 42.1623 352.011 45.1893 356.855C48.2163 361.7 52.1784 365.782 56.8045 368.823C61.4306 371.863 66.6115 373.79 71.9924 374.472L112.989 379.652L131.961 382.052C134.155 382.337 136.368 381.719 138.158 380.324C139.949 378.928 141.186 376.856 141.623 374.521C141.654 374.394 141.677 374.265 141.695 374.135L142.15 371.102L146.011 345.567L146.05 345.307C146.251 344.004 146.197 342.67 145.891 341.391C145.585 340.112 145.034 338.916 144.273 337.881Z" fill="#CACACA"/>
<path d="M219.395 392.172C222.203 392.875 225.119 392.906 227.939 392.262C230.759 391.618 233.414 390.315 235.717 388.445C238.019 386.575 239.913 384.184 241.266 381.44C242.619 378.695 243.397 375.664 243.545 372.561L310.84 351.508L283.117 326.057L223.463 349.951C218.61 350.027 213.952 352.02 210.371 355.552C206.79 359.084 204.535 363.909 204.034 369.113C203.532 374.318 204.819 379.54 207.65 383.79C210.481 388.04 214.66 391.022 219.395 392.172V392.172Z" fill="#FFB6B6"/>
<path d="M344.251 304.414L312.245 224.999C309.627 218.479 304.952 213.17 299.048 210.013C297.224 209.044 295.307 208.291 293.332 207.767C293.026 207.683 292.72 207.605 292.414 207.542C288.226 206.557 283.883 206.643 279.732 207.795C275.937 208.846 272.391 210.747 269.324 213.375C266.257 216.004 263.738 219.299 261.932 223.047C261.912 223.079 261.895 223.112 261.88 223.146C259.862 227.353 258.789 232.013 258.747 236.75C258.706 241.486 259.696 246.167 261.639 250.415L262.036 251.272L284.654 300.244C285.426 301.919 285.861 303.751 285.93 305.619C286 307.488 285.702 309.351 285.057 311.087C284.411 312.823 283.432 314.392 282.185 315.692C280.937 316.991 279.449 317.992 277.817 318.627L276.229 319.245L247.661 330.37C245.517 331.195 243.754 332.884 242.742 335.083C241.73 337.281 241.549 339.816 242.237 342.156L242.309 342.401L250.317 370.029C250.356 370.155 250.395 370.281 250.441 370.408C250.511 370.646 250.598 370.878 250.701 371.103C251.552 373.16 253.056 374.823 254.943 375.792C256.83 376.761 258.976 376.972 260.994 376.388L276.411 372.001L279.556 371.103L319.368 359.767C324.606 358.274 329.484 355.579 333.666 351.866C337.849 348.152 341.238 343.508 343.601 338.251C345.964 332.995 347.246 327.249 347.358 321.409C347.47 315.569 346.41 309.771 344.251 304.413L344.251 304.414Z" fill="#CACACA"/>
<path d="M29.2311 371.103C38.4568 383.234 48.4066 394.705 59.0169 405.44H353.275C356.11 405.445 358.827 406.662 360.831 408.824C362.835 410.986 363.962 413.916 363.965 416.973L364.388 497.363C382.491 488.397 399.443 476.947 414.826 463.299C419.097 459.516 423.235 455.569 427.241 451.458C429.865 448.777 432.426 446.03 434.924 443.217C453.651 422.185 468.815 397.777 479.729 371.103H29.2311Z" fill="#333333"/>
<path d="M434.924 443.217C432.43 446.032 429.87 448.779 427.241 451.458H364.603V443.217H434.924Z" fill="white"/>
<path d="M298.606 179.655C298.296 179.039 297.838 178.525 297.28 178.167C296.722 177.809 296.085 177.619 295.435 177.62H81.9927C81.0358 177.622 80.1188 178.034 79.4428 178.764C78.7667 179.494 78.3867 180.483 78.3859 181.515V319.245H299.048V181.515C299.052 180.864 298.899 180.224 298.606 179.655V179.655Z" fill="#333333"/>
<path d="M78.1926 315.516V332.512C78.1926 333.217 78.3213 333.915 78.5714 334.566C78.8215 335.216 79.188 335.808 79.6502 336.306C80.1123 336.804 80.6609 337.2 81.2647 337.469C81.8685 337.739 82.5156 337.878 83.1691 337.878H164.614V371.42H163.532C163.447 371.42 163.363 371.438 163.285 371.473C163.206 371.508 163.135 371.559 163.075 371.624C163.015 371.689 162.967 371.765 162.935 371.85C162.902 371.935 162.886 372.025 162.886 372.117V374.45C162.886 374.541 162.902 374.632 162.935 374.717C162.967 374.801 163.015 374.878 163.075 374.943C163.135 375.007 163.206 375.059 163.285 375.094C163.363 375.129 163.447 375.147 163.532 375.147H214.092C214.177 375.147 214.261 375.129 214.34 375.094C214.418 375.059 214.489 375.007 214.549 374.943C214.609 374.878 214.657 374.801 214.689 374.717C214.722 374.632 214.739 374.541 214.739 374.45V372.117C214.739 372.025 214.722 371.935 214.689 371.85C214.657 371.765 214.609 371.689 214.549 371.624C214.489 371.559 214.418 371.508 214.34 371.473C214.261 371.438 214.177 371.42 214.092 371.42H213.01V337.878H294.455C295.109 337.878 295.756 337.739 296.36 337.469C296.963 337.2 297.512 336.804 297.974 336.306C298.436 335.808 298.803 335.216 299.053 334.566C299.303 333.915 299.432 333.217 299.432 332.512V315.516H78.1926Z" fill="#333333"/>
<path d="M186.139 266.735C197.396 266.735 206.521 256.897 206.521 244.761C206.521 232.625 197.396 222.786 186.139 222.786C174.882 222.786 165.757 232.625 165.757 244.761C165.757 256.897 174.882 266.735 186.139 266.735Z" fill="white"/>
<path d="M238.07 121.431H234.815C234.815 94.8987 210.459 77.5123 185.888 77.4982C182.314 77.487 178.748 77.8608 175.243 78.6143C171.298 79.4636 167.203 80.4814 163.179 81.808C147.313 87.0513 132.599 97.187 132.599 121.431C132.596 126.14 133.152 130.829 134.253 135.385L131.102 136.27C129.933 131.424 129.342 126.438 129.344 121.431C129.344 100.247 137.411 85.6966 151.343 77.0209C158.668 72.4585 167.607 69.5175 177.848 68.0855C182.109 67.4743 186.418 67.3332 190.706 67.6644C218.962 69.8544 238.07 93.2141 238.07 121.431Z" fill="white"/>
<path d="M243.494 123.375L242.211 113.156C241.895 110.575 240.742 108.198 238.956 106.445C237.809 105.303 236.437 104.456 234.943 103.97C233.448 103.484 231.871 103.37 230.329 103.638L228.292 103.939C227.734 104.019 227.197 104.216 226.71 104.521C226.224 104.826 225.799 105.232 225.459 105.715C225.117 106.197 224.867 106.747 224.722 107.334C224.578 107.921 224.543 108.532 224.62 109.134L227.582 132.676C227.704 133.635 228.103 134.529 228.722 135.231C229.341 135.933 230.15 136.406 231.033 136.586C231.294 136.642 231.56 136.67 231.827 136.67C232.018 136.67 232.21 136.656 232.4 136.628L234.678 136.298C236.068 136.099 237.405 135.596 238.607 134.82C239.81 134.044 240.852 133.011 241.671 131.784C241.847 131.518 242.016 131.244 242.172 130.963C243.392 128.666 243.858 125.993 243.494 123.375Z" fill="white"/>
<path d="M226.976 104.368C226.379 104.681 225.859 105.143 225.459 105.715C225.117 106.197 224.867 106.747 224.722 107.334C224.578 107.921 224.543 108.532 224.62 109.134L227.582 132.676C227.704 133.635 228.103 134.529 228.722 135.231C229.341 135.933 230.15 136.406 231.033 136.585L226.976 104.368Z" fill="white"/>
<path d="M243.494 123.375L242.211 113.156C241.895 110.575 240.742 108.198 238.956 106.445L241.905 129.868C241.949 130.244 242.039 130.612 242.172 130.963C243.392 128.666 243.858 125.993 243.494 123.375V123.375Z" fill="#F05F57"/>
<path d="M233.357 130.739C234.248 130.609 234.696 128.323 234.357 125.634C234.019 122.945 233.023 120.871 232.132 121.001C231.241 121.132 230.793 123.417 231.132 126.106C231.47 128.795 232.466 130.869 233.357 130.739Z" fill="#F05F57"/>
<path d="M231.404 118.105C232.295 117.974 232.742 115.689 232.404 113C232.066 110.311 231.069 108.237 230.179 108.367C229.288 108.497 228.84 110.783 229.178 113.472C229.517 116.161 230.513 118.235 231.404 118.105Z" fill="#F05F57"/>
<path d="M243.774 123.018C244.665 122.888 245.113 120.602 244.774 117.913C244.436 115.224 243.439 113.15 242.549 113.28C241.658 113.411 241.21 115.696 241.548 118.385C241.887 121.074 242.883 123.148 243.774 123.018Z" fill="#F05F57"/>
<path d="M185.888 77.4982C182.314 77.487 178.748 77.8608 175.244 78.6143C171.298 79.4636 167.203 80.4814 163.179 81.808C156.897 81.4781 152.274 79.7233 151.343 77.0209C158.668 72.4585 167.607 69.5175 177.848 68.0855C182.109 67.4743 186.418 67.3332 190.706 67.6644C191.16 67.9513 191.553 68.3386 191.858 68.8007C192.163 69.2628 192.374 69.7894 192.477 70.3457C192.783 72.7884 190.198 75.3855 185.888 77.4982Z" fill="#F05F57"/>
<path d="M144.325 145.788L139.312 123.319C139.133 122.509 138.736 121.773 138.171 121.205C137.606 120.637 136.897 120.261 136.135 120.126C135.919 120.089 135.702 120.071 135.484 120.069C135.176 120.071 134.87 120.111 134.572 120.189L132.632 120.694C130.134 121.345 127.978 123.039 126.636 125.402C125.295 127.765 124.878 130.606 125.477 133.301L127.723 143.38C128.236 145.753 129.457 147.879 131.2 149.431C131.482 149.676 131.778 149.904 132.085 150.111C133.176 150.849 134.394 151.343 135.665 151.565C136.936 151.787 138.236 151.732 139.488 151.403L141.421 150.898C141.932 150.769 142.413 150.528 142.834 150.189C143.459 149.697 143.935 149.016 144.2 148.233C144.466 147.449 144.509 146.598 144.325 145.788Z" fill="white"/>
<path d="M133.815 141.607C134.689 141.38 134.92 139.058 134.332 136.419C133.743 133.781 132.557 131.826 131.683 132.053C130.809 132.28 130.578 134.602 131.167 137.241C131.755 139.879 132.941 141.834 133.815 141.607Z" fill="#F05F57"/>
<path d="M127.305 143.713C128.179 143.486 128.41 141.164 127.821 138.525C127.232 135.887 126.046 133.932 125.172 134.159C124.298 134.386 124.067 136.708 124.656 139.346C125.245 141.985 126.431 143.94 127.305 143.713Z" fill="#F05F57"/>
<path d="M144.644 145.703L139.631 123.235C139.435 122.358 139.004 121.563 138.392 120.948C137.779 120.334 137.012 119.928 136.187 119.782L143.029 150.469C143.705 149.936 144.219 149.198 144.506 148.35C144.794 147.502 144.842 146.581 144.644 145.703V145.703Z" fill="white"/>
<path d="M126.61 128.85C126.471 128.226 126.212 127.64 125.848 127.131C125.143 129.098 125.014 131.251 125.477 133.301L127.723 143.38C128.236 145.753 129.457 147.879 131.2 149.431L126.61 128.85Z" fill="#F05F57"/>
<defs>
<linearGradient id="paint0_linear_2:116" x1="0" y1="0" x2="519.57" y2="498.868" gradientUnits="userSpaceOnUse">
<stop stop-color="#F05F57"/>
<stop offset="1" stop-color="#360940"/>
</linearGradient>
</defs>
</svg>
