<svg width="520" height="520" viewBox="0 0 520 520" fill="none" xmlns="http://www.w3.org/2000/svg">
<path d="M520 260C520.046 295.196 512.922 330.032 499.061 362.384L498.2 364.369C474.754 417.706 434.1 461.642 382.739 489.148C331.377 516.655 272.275 526.145 214.885 516.099C213.323 515.822 211.764 515.535 210.208 515.237C194.125 512.12 178.377 507.476 163.177 501.368C160.708 500.376 158.256 499.348 155.823 498.284C154.161 497.561 152.5 496.814 150.854 496.045C105.823 475.175 67.6962 441.866 40.9687 400.044C14.2411 358.223 0.0264358 309.632 0 260C0 116.407 116.408 0 260 0C403.592 0 520 116.407 520 260Z" fill="url(#paint0_linear_2:29)"/>
<path opacity="0.2" d="M214.885 516.1C213.323 515.823 211.764 515.535 210.208 515.238C209.192 485.769 205.708 425.284 193.823 361.938C187.323 327.269 178.3 291.731 165.785 259.962C161.497 248.969 156.6 238.224 151.115 227.777C138.469 203.892 123.131 183.785 104.531 170.162L107.269 166.423C122.738 177.762 136.641 193.68 148.977 214.177C152.677 220.315 156.231 226.864 159.638 233.823C163.292 241.269 166.777 249.174 170.092 257.538C172.208 262.862 174.251 268.369 176.223 274.062C184.808 298.777 192.105 326.977 198.115 358.661C199.446 365.661 200.713 372.833 201.915 380.177C211.231 437.077 214.038 489.684 214.885 516.1Z" fill="black"/>
<path opacity="0.2" d="M155.823 498.284C154.161 497.561 152.5 496.815 150.854 496.046C149.246 478.584 146.292 456.923 140.892 436.361C138.527 427.127 135.491 418.077 131.808 409.284C125.646 394.861 117.669 382.6 107.354 375.038L110.092 371.307C120.892 379.215 129.223 391.715 135.661 406.338C142.915 422.815 147.754 441.992 150.977 460.315C153.369 473.923 154.877 487.069 155.823 498.284Z" fill="black"/>
<path opacity="0.2" d="M78.6628 170.054C91.4455 170.054 101.808 159.692 101.808 146.909C101.808 134.127 91.4455 123.764 78.6628 123.764C65.8802 123.764 55.5178 134.127 55.5178 146.909C55.5178 159.692 65.8802 170.054 78.6628 170.054Z" fill="black"/>
<path opacity="0.2" d="M170.55 185.786C165.642 213.476 176.476 238.549 176.476 238.549C176.476 238.549 195.268 218.727 200.176 191.037C205.084 163.347 194.25 138.274 194.25 138.274C194.25 138.274 175.458 158.096 170.55 185.786Z" fill="black"/>
<path opacity="0.2" d="M93.6289 251.516C120.04 261.174 146.58 254.976 146.58 254.976C146.58 254.976 130.299 233.12 103.887 223.463C77.4757 213.805 50.9359 220.003 50.9359 220.003C50.9359 220.003 67.2175 241.859 93.6289 251.516Z" fill="black"/>
<path opacity="0.2" d="M89.1502 427.948C107.663 434.717 126.291 430.302 126.291 430.302C126.291 430.302 114.905 414.91 96.3929 408.141C77.8806 401.372 59.2521 405.788 59.2521 405.788C59.2521 405.788 70.6379 421.179 89.1502 427.948Z" fill="black"/>
<path d="M259.466 317.576C315.447 317.576 360.828 272.195 360.828 216.215C360.828 160.234 315.447 114.853 259.466 114.853C203.486 114.853 158.104 160.234 158.104 216.215C158.104 272.195 203.486 317.576 259.466 317.576Z" fill="#FFB6B6"/>
<path d="M219.872 293.819C219.872 293.819 232.542 354.003 232.542 360.338C232.542 366.673 292.725 395.181 292.725 395.181L346.574 385.678L365.579 328.662C365.579 328.662 333.904 281.149 333.904 262.144L219.872 293.819Z" fill="#FFB6B6"/>
<path d="M499.061 362.384L498.2 364.369C474.754 417.707 434.1 461.642 382.739 489.149C331.377 516.656 272.275 526.145 214.884 516.1C213.323 515.823 211.764 515.535 210.208 515.238C194.125 512.12 178.377 507.476 163.177 501.369C160.708 500.376 158.256 499.348 155.823 498.284C154.161 497.561 152.5 496.815 150.854 496.046C135.933 489.133 121.702 480.819 108.354 471.215L96.3384 436.361L103.092 431.207L116.985 420.6L131.808 409.284L135.661 406.338L193.823 361.938L198.115 358.661L228.346 335.585L228.354 335.577C228.354 335.577 261.046 388.846 308.561 373.008C356.077 357.169 355.038 311.754 355.038 311.754L499.061 362.384Z" fill="#333333"/>
<path d="M171.566 134.551C171.566 134.551 203.748 64.8236 265.43 80.9146C327.112 97.0055 361.975 121.142 364.657 145.278C367.339 169.415 363.316 205.619 363.316 205.619C363.316 205.619 356.612 156.006 313.703 166.733C270.793 177.46 203.748 169.415 203.748 169.415L193.02 265.96C193.02 265.96 180.952 248.529 167.543 259.256C154.134 269.983 128.656 156.006 171.566 134.551Z" fill="#333333"/>
<path d="M163.177 501.369C160.708 500.376 158.256 499.348 155.823 498.284C154.161 497.561 152.5 496.815 150.854 496.046C126.176 484.603 103.442 469.367 83.4769 450.892C90.5461 441.261 96.3384 436.361 96.3384 436.361H143.854L150.977 460.315L163.177 501.369Z" fill="#333333"/>
<path d="M457.438 357.169L498.2 364.369C487.292 389.219 472.559 412.208 454.538 432.5L457.438 357.169Z" fill="#333333"/>
<defs>
<linearGradient id="paint0_linear_2:29" x1="0" y1="0" x2="520" y2="520" gradientUnits="userSpaceOnUse">
<stop stop-color="#F05F57"/>
<stop offset="1" stop-color="#360940"/>
</linearGradient>
</defs>
</svg>
