<svg width="36" height="36" viewBox="0 0 36 36" fill="none" xmlns="http://www.w3.org/2000/svg">
<path d="M26 2H10C5.58172 2 2 5.58172 2 10V26C2 30.4183 5.58172 34 10 34H26C30.4183 34 34 30.4183 34 26V10C34 5.58172 30.4183 2 26 2Z" stroke="#222222" stroke-width="3" stroke-linecap="round" stroke-linejoin="round"/>
<path d="M24.3999 16.992C24.5974 18.3236 24.3699 19.6835 23.7499 20.8784C23.1299 22.0733 22.1489 23.0423 20.9465 23.6475C19.7441 24.2527 18.3814 24.4633 17.0524 24.2495C15.7233 24.0356 14.4955 23.4081 13.5437 22.4563C12.5918 21.5044 11.9643 20.2766 11.7504 18.9475C11.5366 17.6185 11.7472 16.2558 12.3524 15.0534C12.9576 13.851 13.9266 12.87 15.1215 12.25C16.3164 11.63 17.6763 11.4025 19.0079 11.6C20.3662 11.8014 21.6237 12.4343 22.5946 13.4053C23.5656 14.3762 24.1985 15.6337 24.3999 16.992Z" stroke="#222222" stroke-width="3" stroke-linecap="round" stroke-linejoin="round"/>
<path d="M26.8 9.19995H26.816" stroke="#222222" stroke-width="3" stroke-linecap="round" stroke-linejoin="round"/>
</svg>
