<svg width="544" height="404" viewBox="0 0 544 404" fill="none" xmlns="http://www.w3.org/2000/svg">
<path d="M53.8815 158.564C62.0766 158.564 68.72 151.921 68.72 143.727C68.72 135.533 62.0766 128.89 53.8815 128.89C45.6864 128.89 39.043 135.533 39.043 143.727C39.043 151.921 45.6864 158.564 53.8815 158.564Z" fill="#F2F2F2"/>
<path d="M386.708 271.911H385.096V286.821H386.708V271.911Z" fill="#F2F2F2"/>
<path d="M392.35 26.0897H390.738V41.0002H392.35V26.0897Z" fill="#F2F2F2"/>
<path d="M61.0625 87.3435H59.4504V102.254H61.0625V87.3435Z" fill="#F2F2F2"/>
<path d="M416.257 184.657H414.645V199.568H416.257V184.657Z" fill="#F2F2F2"/>
<path d="M465.427 184.657H463.814V199.568H465.427V184.657Z" fill="#F2F2F2"/>
<path d="M433.184 97.2095H431.572V112.12H433.184V97.2095Z" fill="#F2F2F2"/>
<path d="M54.2111 18.433V398.045H405.65V18.433H54.2111ZM229.931 45.836C227.539 45.836 225.202 45.127 223.213 43.7985C221.225 42.4701 219.675 40.582 218.76 38.3729C217.845 36.1638 217.606 33.733 218.072 31.3879C218.539 29.0427 219.69 26.8886 221.381 25.1978C223.072 23.5071 225.227 22.3557 227.572 21.8892C229.917 21.4227 232.348 21.6621 234.558 22.5771C236.767 23.4922 238.655 25.0417 239.984 27.0299C241.312 29.018 242.022 31.3553 242.022 33.7464C242.022 36.9528 240.748 40.0278 238.48 42.2951C236.213 44.5623 233.137 45.836 229.931 45.836V45.836Z" fill="url(#paint0_linear_2:316)"/>
<path d="M30.0295 365.24C35.6025 385.839 54.6914 398.596 54.6914 398.596C54.6914 398.596 64.7447 377.956 59.1716 357.357C53.5986 336.758 34.5097 324 34.5097 324C34.5097 324 24.4564 344.64 30.0295 365.24Z" fill="#F05F57"/>
<path d="M38.2187 360.813C53.5112 375.698 55.379 398.58 55.379 398.58C55.379 398.58 32.4529 397.328 17.1604 382.443C1.86786 367.558 0 344.676 0 344.676C0 344.676 22.9262 345.927 38.2187 360.813Z" fill="white"/>
<path d="M277.891 97.8212H93.3046C91.8082 97.8212 90.373 97.2268 89.3149 96.1688C88.2567 95.1107 87.6622 93.6757 87.6622 92.1794C87.6622 90.6831 88.2567 89.2481 89.3149 88.1901C90.373 87.132 91.8082 86.5376 93.3046 86.5376H277.891C279.387 86.5376 280.822 87.132 281.881 88.1901C282.939 89.2481 283.533 90.6831 283.533 92.1794C283.533 93.6757 282.939 95.1107 281.881 96.1688C280.822 97.2268 279.387 97.8212 277.891 97.8212V97.8212Z" fill="#F2F2F2"/>
<path d="M277.891 155.851H93.3046C91.8082 155.851 90.373 155.257 89.3149 154.199C88.2567 153.141 87.6622 151.706 87.6622 150.209C87.6622 148.713 88.2567 147.278 89.3149 146.22C90.373 145.162 91.8082 144.568 93.3046 144.568H277.891C279.387 144.568 280.822 145.162 281.881 146.22C282.939 147.278 283.533 148.713 283.533 150.209C283.533 151.706 282.939 153.141 281.881 154.199C280.822 155.257 279.387 155.851 277.891 155.851Z" fill="#F2F2F2"/>
<path d="M277.891 213.881H93.3046C91.8082 213.881 90.373 213.287 89.3149 212.229C88.2567 211.171 87.6622 209.736 87.6622 208.239C87.6622 206.743 88.2567 205.308 89.3149 204.25C90.373 203.192 91.8082 202.597 93.3046 202.597H277.891C279.387 202.597 280.822 203.192 281.881 204.25C282.939 205.308 283.533 206.743 283.533 208.239C283.533 209.736 282.939 211.171 281.881 212.229C280.822 213.287 279.387 213.881 277.891 213.881Z" fill="#F2F2F2"/>
<path d="M277.891 271.911H93.3046C91.8082 271.911 90.373 271.316 89.3149 270.258C88.2567 269.2 87.6622 267.765 87.6622 266.269C87.6622 264.773 88.2567 263.338 89.3149 262.28C90.373 261.222 91.8082 260.627 93.3046 260.627H277.891C279.387 260.627 280.822 261.222 281.881 262.28C282.939 263.338 283.533 264.773 283.533 266.269C283.533 267.765 282.939 269.2 281.881 270.258C280.822 271.316 279.387 271.911 277.891 271.911V271.911Z" fill="#F2F2F2"/>
<path d="M277.891 329.941H93.3046C91.8082 329.941 90.373 329.346 89.3149 328.288C88.2567 327.23 87.6622 325.795 87.6622 324.299C87.6622 322.803 88.2567 321.368 89.3149 320.31C90.373 319.252 91.8082 318.657 93.3046 318.657H277.891C279.387 318.657 280.822 319.252 281.881 320.31C282.939 321.368 283.533 322.803 283.533 324.299C283.533 325.795 282.939 327.23 281.881 328.288C280.822 329.346 279.387 329.941 277.891 329.941Z" fill="#F2F2F2"/>
<path d="M245.649 97.8212H92.4986C91.0021 97.8212 89.567 97.2268 88.5088 96.1688C87.4507 95.1107 86.8562 93.6757 86.8562 92.1794C86.8562 90.6831 87.4507 89.2481 88.5088 88.1901C89.567 87.132 91.0021 86.5376 92.4986 86.5376H245.649C247.145 86.5376 248.58 87.132 249.638 88.1901C250.697 89.2481 251.291 90.6831 251.291 92.1794C251.291 93.6757 250.697 95.1107 249.638 96.1688C248.58 97.2268 247.145 97.8212 245.649 97.8212V97.8212Z" fill="white"/>
<path d="M198.092 155.851H92.4986C91.0021 155.851 89.567 155.257 88.5088 154.199C87.4507 153.141 86.8562 151.706 86.8562 150.209C86.8562 148.713 87.4507 147.278 88.5088 146.22C89.567 145.162 91.0021 144.568 92.4986 144.568H198.092C199.588 144.568 201.023 145.162 202.081 146.22C203.139 147.278 203.734 148.713 203.734 150.209C203.734 151.706 203.139 153.141 202.081 154.199C201.023 155.257 199.588 155.851 198.092 155.851Z" fill="white"/>
<path d="M140.056 213.881H92.4986C91.0021 213.881 89.567 213.287 88.5088 212.229C87.4507 211.171 86.8562 209.736 86.8562 208.239C86.8562 206.743 87.4507 205.308 88.5088 204.25C89.567 203.192 91.0021 202.597 92.4986 202.597H140.056C141.552 202.597 142.987 203.192 144.045 204.25C145.104 205.308 145.698 206.743 145.698 208.239C145.698 209.736 145.104 211.171 144.045 212.229C142.987 213.287 141.552 213.881 140.056 213.881V213.881Z" fill="white"/>
<path d="M260.158 271.911H92.4986C91.0021 271.911 89.567 271.316 88.5088 270.258C87.4507 269.2 86.8562 267.765 86.8562 266.269C86.8562 264.773 87.4507 263.338 88.5088 262.28C89.567 261.222 91.0021 260.627 92.4986 260.627H260.158C261.654 260.627 263.089 261.222 264.147 262.28C265.206 263.338 265.8 264.773 265.8 266.269C265.8 267.765 265.206 269.2 264.147 270.258C263.089 271.316 261.654 271.911 260.158 271.911V271.911Z" fill="white"/>
<path d="M223.079 329.941H92.4986C91.0021 329.941 89.567 329.346 88.5088 328.288C87.4507 327.23 86.8562 325.795 86.8562 324.299C86.8562 322.803 87.4507 321.368 88.5088 320.31C89.567 319.252 91.0021 318.657 92.4986 318.657H223.079C224.576 318.657 226.011 319.252 227.069 320.31C228.127 321.368 228.722 322.803 228.722 324.299C228.722 325.795 228.127 327.23 227.069 328.288C226.011 329.346 224.576 329.941 223.079 329.941V329.941Z" fill="white"/>
<path d="M354.466 86.5376H352.854V97.8212H354.466V86.5376Z" fill="white"/>
<path d="M366.557 98.6271C365.281 98.6271 364.035 98.249 362.974 97.5405C361.914 96.832 361.087 95.825 360.599 94.6468C360.111 93.4686 359.983 92.1722 360.232 90.9215C360.481 89.6707 361.095 88.5218 361.997 87.6201C362.899 86.7184 364.048 86.1042 365.299 85.8555C366.55 85.6067 367.846 85.7344 369.024 86.2224C370.203 86.7104 371.21 87.5368 371.918 88.5972C372.627 89.6575 373.005 90.9041 373.005 92.1793C373.003 93.8888 372.323 95.5277 371.114 96.7365C369.905 97.9452 368.266 98.6252 366.557 98.6271V98.6271ZM366.557 87.3435C365.6 87.3435 364.665 87.6271 363.87 88.1585C363.074 88.6899 362.455 89.4451 362.089 90.3288C361.722 91.2124 361.627 92.1847 361.813 93.1228C362 94.0608 362.461 94.9225 363.137 95.5988C363.813 96.2751 364.675 96.7357 365.613 96.9223C366.551 97.1089 367.524 97.0131 368.408 96.6471C369.291 96.2811 370.047 95.6612 370.578 94.866C371.109 94.0708 371.393 93.1358 371.393 92.1793C371.392 90.8972 370.882 89.668 369.975 88.7614C369.068 87.8548 367.839 87.3449 366.557 87.3435V87.3435Z" fill="white"/>
<path d="M354.466 144.568H352.854V155.851H354.466V144.568Z" fill="white"/>
<path d="M366.557 156.657C365.281 156.657 364.035 156.279 362.974 155.57C361.914 154.862 361.087 153.855 360.599 152.677C360.111 151.499 359.983 150.202 360.232 148.951C360.481 147.701 361.095 146.552 361.997 145.65C362.899 144.748 364.048 144.134 365.299 143.885C366.55 143.637 367.846 143.764 369.024 144.252C370.203 144.74 371.21 145.567 371.918 146.627C372.627 147.687 373.005 148.934 373.005 150.209C373.003 151.919 372.323 153.558 371.114 154.766C369.905 155.975 368.266 156.655 366.557 156.657ZM366.557 145.373C365.6 145.373 364.665 145.657 363.87 146.188C363.074 146.72 362.455 147.475 362.089 148.359C361.722 149.242 361.627 150.215 361.813 151.153C362 152.091 362.461 152.952 363.137 153.629C363.813 154.305 364.675 154.766 365.613 154.952C366.551 155.139 367.524 155.043 368.408 154.677C369.291 154.311 370.047 153.691 370.578 152.896C371.109 152.101 371.393 151.166 371.393 150.209C371.392 148.927 370.882 147.698 369.975 146.791C369.068 145.885 367.839 145.375 366.557 145.373V145.373Z" fill="white"/>
<path d="M354.466 202.597H352.854V213.881H354.466V202.597Z" fill="white"/>
<path d="M366.557 214.687C365.281 214.687 364.035 214.309 362.974 213.6C361.914 212.892 361.087 211.885 360.599 210.707C360.111 209.529 359.983 208.232 360.232 206.981C360.481 205.731 361.095 204.582 361.997 203.68C362.899 202.778 364.048 202.164 365.299 201.915C366.55 201.667 367.846 201.794 369.024 202.282C370.203 202.77 371.21 203.597 371.918 204.657C372.627 205.717 373.005 206.964 373.005 208.239C373.003 209.949 372.323 211.588 371.114 212.796C369.905 214.005 368.266 214.685 366.557 214.687V214.687ZM366.557 203.403C365.6 203.403 364.665 203.687 363.87 204.218C363.074 204.75 362.455 205.505 362.089 206.389C361.722 207.272 361.627 208.245 361.813 209.183C362 210.121 362.461 210.982 363.137 211.659C363.813 212.335 364.675 212.796 365.613 212.982C366.551 213.169 367.524 213.073 368.408 212.707C369.291 212.341 370.047 211.721 370.578 210.926C371.109 210.131 371.393 209.196 371.393 208.239C371.392 206.957 370.882 205.728 369.975 204.821C369.068 203.915 367.839 203.405 366.557 203.403V203.403Z" fill="white"/>
<path d="M354.466 260.627H352.854V271.911H354.466V260.627Z" fill="white"/>
<path d="M366.557 272.717C365.281 272.717 364.035 272.339 362.974 271.63C361.914 270.922 361.087 269.915 360.599 268.737C360.111 267.558 359.983 266.262 360.232 265.011C360.481 263.76 361.095 262.612 361.997 261.71C362.899 260.808 364.048 260.194 365.299 259.945C366.55 259.696 367.846 259.824 369.024 260.312C370.203 260.8 371.21 261.627 371.918 262.687C372.627 263.747 373.005 264.994 373.005 266.269C373.003 267.979 372.323 269.617 371.114 270.826C369.905 272.035 368.266 272.715 366.557 272.717V272.717ZM366.557 261.433C365.6 261.433 364.665 261.717 363.87 262.248C363.074 262.78 362.455 263.535 362.089 264.418C361.722 265.302 361.627 266.274 361.813 267.212C362 268.151 362.461 269.012 363.137 269.689C363.813 270.365 364.675 270.825 365.613 271.012C366.551 271.199 367.524 271.103 368.408 270.737C369.291 270.371 370.047 269.751 370.578 268.956C371.109 268.16 371.393 267.226 371.393 266.269C371.392 264.987 370.882 263.758 369.975 262.851C369.068 261.945 367.839 261.435 366.557 261.433Z" fill="white"/>
<path d="M354.466 318.657H352.854V329.941H354.466V318.657Z" fill="white"/>
<path d="M366.557 330.747C365.281 330.747 364.035 330.369 362.974 329.66C361.914 328.952 361.087 327.945 360.599 326.767C360.111 325.588 359.983 324.292 360.232 323.041C360.481 321.79 361.095 320.642 361.997 319.74C362.899 318.838 364.048 318.224 365.299 317.975C366.55 317.726 367.846 317.854 369.024 318.342C370.203 318.83 371.21 319.657 371.918 320.717C372.627 321.777 373.005 323.024 373.005 324.299C373.003 326.009 372.323 327.647 371.114 328.856C369.905 330.065 368.266 330.745 366.557 330.747V330.747ZM366.557 319.463C365.6 319.463 364.665 319.747 363.87 320.278C363.074 320.81 362.455 321.565 362.089 322.448C361.722 323.332 361.627 324.304 361.813 325.242C362 326.181 362.461 327.042 363.137 327.719C363.813 328.395 364.675 328.855 365.613 329.042C366.551 329.229 367.524 329.133 368.408 328.767C369.291 328.401 370.047 327.781 370.578 326.986C371.109 326.19 371.393 325.256 371.393 324.299C371.392 323.017 370.882 321.788 369.975 320.881C369.068 319.975 367.839 319.465 366.557 319.463Z" fill="white"/>
<path d="M366.557 95.4032C368.337 95.4032 369.781 93.9598 369.781 92.1793C369.781 90.3988 368.337 88.9554 366.557 88.9554C364.776 88.9554 363.333 90.3988 363.333 92.1793C363.333 93.9598 364.776 95.4032 366.557 95.4032Z" fill="white"/>
<path d="M366.557 269.493C368.337 269.493 369.781 268.05 369.781 266.269C369.781 264.489 368.337 263.045 366.557 263.045C364.776 263.045 363.333 264.489 363.333 266.269C363.333 268.05 364.776 269.493 366.557 269.493Z" fill="white"/>
<path d="M366.557 327.523C368.337 327.523 369.781 326.08 369.781 324.299C369.781 322.519 368.337 321.075 366.557 321.075C364.776 321.075 363.333 322.519 363.333 324.299C363.333 326.08 364.776 327.523 366.557 327.523Z" fill="white"/>
<path d="M229.931 39.3882C233.047 39.3882 235.573 36.8623 235.573 33.7464C235.573 30.6305 233.047 28.1046 229.931 28.1046C226.815 28.1046 224.288 30.6305 224.288 33.7464C224.288 36.8623 226.815 39.3882 229.931 39.3882Z" fill="white"/>
<path d="M483.657 189.476V209.444C483.657 209.444 488.464 241.615 488.464 269.717C488.464 297.82 480.698 363.27 480.698 363.27C480.698 363.27 465.166 368.817 464.057 360.312C462.947 351.807 459.989 306.695 459.989 300.039C459.989 293.383 447.045 242.724 447.045 242.724L438.909 298.93C438.909 298.93 441.498 365.489 438.909 367.338C436.321 369.187 423.747 372.515 422.268 369.187C420.788 365.859 413.022 294.492 413.022 294.492C413.022 294.492 406.736 201.309 410.434 195.762C414.132 190.216 417.46 185.779 417.46 185.779C417.46 185.779 470.343 172.836 483.657 189.476Z" fill="#2B2B2B"/>
<path d="M478.849 361.052L479.776 367.079C480.087 369.136 480.289 371.207 480.383 373.285C480.527 376.313 481.031 380.978 482.757 381.717C485.345 382.827 502.147 396.995 490.313 397.735C478.479 398.474 472.559 399.752 469.054 397.031C464.91 393.814 469.604 395.27 467.755 395.27C465.906 395.27 463.687 395.27 462.947 392.312C462.207 389.354 464.057 384.177 464.057 384.177V361.052H478.849Z" fill="#2B2B2B"/>
<path d="M423.631 360.762L422.704 366.79C422.393 368.846 422.191 370.917 422.098 372.995C421.953 376.023 421.449 380.688 419.724 381.428C417.135 382.537 400.333 396.706 412.167 397.445C424.001 398.185 429.921 399.462 433.427 396.741C437.571 393.524 432.877 394.981 434.726 394.981C436.575 394.981 438.794 394.981 439.533 392.023C440.273 389.064 438.424 383.887 438.424 383.887V360.762H423.631Z" fill="#2B2B2B"/>
<path d="M434.102 28.994C434.102 28.994 440.389 44.5245 444.826 47.113C449.264 49.7014 447.045 61.5342 447.045 61.5342L435.951 77.0647H427.075L416.351 58.576C416.351 58.576 415.611 46.3735 413.392 43.4153C411.173 40.4571 434.102 28.994 434.102 28.994Z" fill="#FFB9B9"/>
<path opacity="0.1" d="M434.102 28.994C434.102 28.994 440.389 44.5245 444.826 47.113C449.264 49.7014 447.045 61.5342 447.045 61.5342L435.951 77.0647H427.075L416.351 58.576C416.351 58.576 415.611 46.3735 413.392 43.4153C411.173 40.4571 434.102 28.994 434.102 28.994Z" fill="black"/>
<path d="M443.347 60.7947L459.989 64.4924L472.192 187.258C472.192 187.258 465.536 188.367 458.879 197.242C452.223 206.116 444.087 204.637 440.019 202.418C435.951 200.2 419.679 193.914 419.309 191.325C418.94 188.737 420.049 143.254 420.049 143.254L409.694 72.2577L414.872 64.4924H424.117L431.513 70.7786L443.347 60.7947Z" fill="#333333"/>
<path d="M418.2 48.2223C428.82 48.2223 437.43 39.6135 437.43 28.994C437.43 18.3746 428.82 9.76575 418.2 9.76575C407.579 9.76575 398.97 18.3746 398.97 28.994C398.97 39.6135 407.579 48.2223 418.2 48.2223Z" fill="#FFB9B9"/>
<path d="M445.936 54.5085C445.936 54.5085 482.177 58.2063 485.506 65.9715C488.834 73.7368 483.287 108.126 483.287 108.126C483.287 108.126 496.6 138.078 496.23 145.103C495.86 152.129 508.804 200.2 494.751 194.653C480.698 189.107 485.136 174.685 478.109 185.039C471.083 195.393 468.124 193.914 468.124 193.914C468.124 193.914 461.098 205.377 458.879 204.267C456.66 203.158 455.181 194.653 459.989 190.586C464.796 186.518 464.057 179.492 454.811 166.18C445.566 152.869 435.951 82.9812 441.498 72.2577C447.045 61.5343 445.936 54.5085 445.936 54.5085Z" fill="#F05F57"/>
<path d="M483.657 196.502L477.37 202.418L469.604 197.242L472.933 189.476L483.657 196.502Z" fill="#FFB9B9"/>
<path d="M419.309 60.7947C419.309 60.7947 391.204 71.1484 391.204 82.2416C391.204 93.3348 408.215 141.775 408.215 141.775C408.215 141.775 408.215 154.348 407.475 157.306C406.736 160.264 395.1 186.065 405.256 188.367C411.596 189.804 416.805 193.578 417.275 198.905C417.834 205.231 412.991 213.216 413.392 214.621C414.132 217.209 418.57 220.907 418.2 219.058C417.83 217.209 421.158 190.586 426.336 178.753C431.513 166.92 424.117 87.4185 422.638 77.0648C421.924 71.568 420.811 66.1303 419.309 60.7947V60.7947Z" fill="#F05F57"/>
<path d="M404.517 195.762L411.173 211.663L416.166 201.494L410.433 188.736L404.517 195.762Z" fill="#FFB9B9"/>
<path d="M439.864 40.9067C439.864 40.9067 445.936 43.4152 449.634 43.4152C453.332 43.4152 468.494 51.1805 463.317 55.9876C458.14 60.7947 450.373 61.904 446.675 68.9297C442.977 75.9554 441.128 77.0647 441.128 77.0647L434.544 68.2213C434.544 68.2213 443.717 57.8364 443.347 54.5085C442.977 51.1805 439.864 40.9067 439.864 40.9067Z" fill="#333333"/>
<path d="M415.352 49.7975C415.352 49.7975 410.804 51.5503 409.694 54.5085C408.585 57.4667 401.558 63.0133 404.517 64.4924C407.475 65.9715 420.419 71.8879 423.007 72.9972C425.596 74.1066 430.42 69.85 430.42 69.85C430.42 69.85 423.932 66.1564 423.932 63.568C423.932 60.9796 415.352 49.7975 415.352 49.7975Z" fill="#333333"/>
<path d="M400.079 77.0647L391.204 79.2833C391.204 79.2833 379 134.01 382.698 147.692C386.396 161.373 403.777 202.418 403.777 202.418L414.872 189.476C414.872 189.476 410.032 160.046 407.274 158.121C404.517 156.196 406.366 152.129 406.366 151.02C406.366 149.91 407.475 150.65 404.887 148.061C402.298 145.473 414.502 131.052 411.173 126.984C407.845 122.917 400.079 77.0647 400.079 77.0647Z" fill="#F05F57"/>
<path opacity="0.1" d="M487.54 87.2335L482.177 67.0808C482.177 67.0808 496.6 77.4345 499.559 92.5953C502.517 107.756 513.981 138.078 506.585 151.389C499.189 164.701 486.245 203.158 481.808 202.418C477.37 201.679 466.645 192.434 466.275 190.955C465.906 189.476 485.506 155.457 482.547 152.869C479.589 150.28 480.328 143.624 482.547 142.145C484.766 140.666 487.355 133.64 485.506 134.01C483.657 134.38 478.109 130.682 479.219 126.615C480.328 122.547 473.672 95.1837 473.672 95.1837L487.54 87.2335Z" fill="black"/>
<path d="M480.328 64.4924L485.506 65.9715C485.506 65.9715 499.928 76.3252 502.887 91.486C505.845 106.647 517.31 136.968 509.913 150.28C502.517 163.592 489.574 202.049 485.136 201.309C480.698 200.57 469.974 191.325 469.604 189.846C469.234 188.367 488.834 154.348 485.876 151.759C482.917 149.171 483.657 142.515 485.876 141.036C488.094 139.557 490.683 132.531 488.834 132.901C486.985 133.271 481.438 129.573 482.547 125.505C483.657 121.438 477 94.0744 477 94.0744L480.328 64.4924Z" fill="#F05F57"/>
<path d="M433.123 11.6375L436.73 10.3261C436.73 10.3261 429.188 2.7854 418.696 3.44117L421.647 0.490455C421.647 0.490455 414.433 -2.13235 407.876 4.75255C404.428 8.37179 400.44 12.626 397.953 17.4184H394.091L395.703 20.6423L390.061 23.8661L395.852 23.287C395.303 26.0704 395.492 28.9487 396.4 31.6365L397.711 35.2429C397.711 35.2429 402.957 24.7516 402.957 23.4402V26.7187C402.957 26.7187 406.564 23.7681 406.564 21.8009L408.531 24.0959L409.515 20.4895L421.647 24.0959L419.68 21.1453L427.221 22.1288L424.27 18.5224C424.27 18.5224 432.795 22.7845 433.123 26.3909C433.451 29.9973 437.713 34.5872 437.713 34.5872L439.681 31.3087C439.681 31.3087 442.632 16.5553 433.123 11.6375Z" fill="#2B2B2B"/>
<path d="M432.378 31.1198C433.936 31.1198 435.2 29.1352 435.2 26.687C435.2 24.2388 433.936 22.2542 432.378 22.2542C430.82 22.2542 429.557 24.2388 429.557 26.687C429.557 29.1352 430.82 31.1198 432.378 31.1198Z" fill="#FFB9B9"/>
<path d="M491.888 360.288C476.835 375.414 475.331 398.324 475.331 398.324C475.331 398.324 498.233 396.71 513.286 381.584C528.339 366.458 529.843 343.548 529.843 343.548C529.843 343.548 506.941 345.162 491.888 360.288Z" fill="#F05F57"/>
<path d="M499.817 365.167C494.572 385.853 475.69 398.912 475.69 398.912C475.69 398.912 465.31 378.431 470.555 357.745C475.8 337.059 494.682 324 494.682 324C494.682 324 505.061 344.48 499.817 365.167Z" fill="white"/>
<defs>
<linearGradient id="paint0_linear_2:316" x1="54.2111" y1="18.433" x2="432.698" y2="368.83" gradientUnits="userSpaceOnUse">
<stop stop-color="#F05F57"/>
<stop offset="1" stop-color="#360940"/>
</linearGradient>
</defs>
</svg>
